<svg width="481" height="78" viewBox="0 0 481 78" fill="none" xmlns="http://www.w3.org/2000/svg">
<path d="M4.08403 20.888C6.13337 20.888 8.37603 20.5593 10.812 19.902C15.3747 14.682 20.2274 10.274 25.37 6.678C30.5514 3.04333 34.9207 1.226 38.478 1.226C40.2567 1.226 41.146 1.67067 41.146 2.56C41.146 3.75866 39.7927 5.47933 37.086 7.722C34.3794 9.96466 30.8607 12.2653 26.53 14.624C22.1994 16.9827 17.946 18.858 13.77 20.25C10.638 23.8847 8.10536 27.4033 6.17203 30.806C4.2387 34.2087 3.27203 37.012 3.27203 39.216C3.27203 42.3093 5.24403 43.856 9.18803 43.856C11.392 43.856 13.828 43.16 16.496 41.768C19.164 40.376 21.368 39.0033 23.108 37.65C23.4947 37.3793 23.8234 37.244 24.094 37.244C24.4034 37.244 24.558 37.3987 24.558 37.708C24.558 37.9013 24.4807 38.0753 24.326 38.23C22.5087 39.5447 20.8847 40.6273 19.454 41.478C18.062 42.3287 16.2254 43.16 13.944 43.972C11.6627 44.8227 9.47803 45.248 7.39003 45.248C2.51803 45.248 0.0820312 43.3727 0.0820312 39.622C0.0820312 35.098 3.21403 29.0467 9.47803 21.468C7.62203 21.932 5.84336 22.222 4.14203 22.338C3.67803 22.2607 3.44603 22.0093 3.44603 21.584C3.44603 21.1587 3.6587 20.9267 4.08403 20.888ZM36.68 2.85C34.3987 2.85 31.228 4.37733 27.168 7.432C23.1467 10.448 19.164 14.16 15.22 18.568C18.816 17.292 22.4314 15.6293 26.066 13.58C29.7394 11.492 32.678 9.53933 34.882 7.722C37.086 5.866 38.188 4.51266 38.188 3.662C38.188 3.12067 37.6854 2.85 36.68 2.85ZM37.3606 35.04C37.1286 35.04 37.0126 34.9627 37.0126 34.808C37.0126 34.6147 37.148 34.402 37.4186 34.17C38.6946 33.126 39.3326 32.1787 39.3326 31.328C39.3326 30.7867 38.8493 30.4773 37.8826 30.4C36.1426 30.4387 34.0546 31.6953 31.6186 34.17C29.2213 36.6447 28.0226 38.5007 28.0226 39.738C28.0226 40.1633 28.2546 40.376 28.7186 40.376C29.2213 40.376 29.8786 40.0473 30.6906 39.39C31.4253 38.926 32.798 37.766 34.8086 35.91C35.2726 35.446 35.7173 35.214 36.1426 35.214C36.684 35.214 36.9546 35.4653 36.9546 35.968C36.9546 36.1613 36.8966 36.316 36.7806 36.432C36.6646 36.548 36.452 36.7993 36.1426 37.186C35.8333 37.534 35.5626 37.8627 35.3306 38.172C34.6346 39.1773 34.2866 39.8347 34.2866 40.144C34.2866 40.9173 34.596 41.304 35.2146 41.304C36.0266 41.304 37.554 40.5693 39.7966 39.1C42.0393 37.592 44.0886 36.084 45.9446 34.576L48.7286 32.372C48.9993 32.1787 49.2506 32.082 49.4826 32.082C49.7146 32.082 49.8306 32.2173 49.8306 32.488V32.604C46.8533 35.1173 43.702 37.476 40.3766 39.68C37.09 41.884 34.9246 42.986 33.8806 42.986C32.6433 42.986 32.0246 42.3287 32.0246 41.014C32.0246 40.7047 32.0826 40.4147 32.1986 40.144C32.3146 39.8733 32.3726 39.68 32.3726 39.564C32.3726 39.448 32.334 39.3707 32.2566 39.332C32.1406 39.332 31.3866 39.854 29.9946 40.898C28.6413 41.942 27.4426 42.464 26.3986 42.464C25.3933 42.464 24.8906 41.9227 24.8906 40.84C24.8906 39.7573 25.606 38.3073 27.0366 36.49C28.506 34.634 30.4586 32.952 32.8946 31.444C35.3306 29.936 37.7086 29.182 40.0286 29.182C40.57 29.182 41.0146 29.3173 41.3626 29.588C41.7493 29.8587 41.9426 30.284 41.9426 30.864C41.9426 31.4053 41.382 32.2367 40.2606 33.358C39.1393 34.4793 38.1726 35.04 37.3606 35.04ZM80.0373 17.408L71.7433 17.002C68.3406 17.002 64.9573 17.1373 61.5933 17.408L61.8833 18.568C61.8833 18.9933 60.6266 20.6173 58.1133 23.44C55.6 26.224 53.0866 29.2787 50.5733 32.604C48.06 35.8907 46.8033 38.3267 46.8033 39.912C46.8033 40.5307 47.016 40.84 47.4413 40.84C47.9053 40.84 48.93 40.2987 50.5153 39.216C53.454 37.2827 56.1413 35.33 58.5773 33.358L59.8533 32.314C60.124 32.1207 60.356 32.024 60.5493 32.024C60.7426 32.024 60.8393 32.14 60.8393 32.372V32.546C60.994 32.546 59.95 33.3967 57.7073 35.098C55.5033 36.7993 53.1253 38.5007 50.5733 40.202C48.06 41.9033 46.4746 42.754 45.8173 42.754C44.696 42.754 44.1353 42.2513 44.1353 41.246C44.1353 39.7767 44.9473 37.7467 46.5713 35.156C48.234 32.5653 50.032 30.1293 51.9653 27.848C53.9373 25.528 55.7933 23.3433 57.5333 21.294C59.312 19.2447 60.2786 17.988 60.4333 17.524C56.18 17.9107 52.9126 18.3747 50.6313 18.916L49.4713 19.148C49.162 19.1867 49.0073 19.4767 49.0073 20.018C49.0073 20.25 48.7366 20.366 48.1953 20.366C47.654 20.366 46.9773 20.25 46.1653 20.018C45.392 19.7473 45.0053 19.38 45.0053 18.916C45.0053 18.452 45.392 18.1427 46.1653 17.988C51.888 16.9827 55.948 16.3833 58.3453 16.19C60.7426 15.958 62.328 15.8227 63.1013 15.784C63.9133 15.7067 65.1506 15.6487 66.8133 15.61C68.5146 15.5713 69.6553 15.552 70.2353 15.552C71.9753 15.4747 74.0053 15.436 76.3253 15.436C78.684 15.436 80.1146 15.5327 80.6173 15.726C81.12 15.9193 81.3713 16.2867 81.3713 16.828C81.3713 17.2147 80.9266 17.408 80.0373 17.408ZM74.6696 32.372C74.9402 32.1787 75.1916 32.082 75.4236 32.082C75.6556 32.082 75.7716 32.2173 75.7716 32.488V32.604C71.7502 35.9293 68.4056 38.4233 65.7376 40.086C63.0696 41.7487 60.6529 42.58 58.4876 42.58C56.7476 42.58 55.8776 41.7293 55.8776 40.028C55.8776 37.5147 57.1536 34.9433 59.7056 32.314C62.2576 29.646 64.4036 28.312 66.1436 28.312C67.1102 28.312 67.5936 28.8533 67.5936 29.936C67.4002 32.0627 64.3456 34.924 58.4296 38.52V39.1C58.4296 40.376 59.0869 41.014 60.4016 41.014C61.7549 41.014 63.2049 40.5693 64.7516 39.68C67.7676 37.9013 70.5902 35.8713 73.2196 33.59L74.6696 32.372ZM64.6356 30.11C63.7849 30.11 62.6829 30.8253 61.3296 32.256C60.0149 33.6867 59.1256 35.3107 58.6616 37.128C60.5176 36.0067 62.0836 34.8273 63.3596 33.59C64.6356 32.314 65.2736 31.4247 65.2736 30.922C65.2736 30.3807 65.0609 30.11 64.6356 30.11ZM87.5347 32.372C87.8054 32.1787 88.0567 32.082 88.2887 32.082C88.5207 32.082 88.6367 32.2173 88.6367 32.488V32.604C85.7367 34.924 82.8754 37.1087 80.0527 39.158C77.23 41.1687 75.1614 42.174 73.8467 42.174C72.88 42.174 72.3967 41.652 72.3967 40.608C72.3967 39.564 72.8607 38.52 73.7887 37.476C74.7167 36.432 75.6254 35.5233 76.5147 34.75C77.4427 33.9767 77.9067 33.474 77.9067 33.242C77.9067 32.9713 77.752 32.6813 77.4427 32.372C77.172 32.024 76.94 31.792 76.7467 31.676C76.0894 32.3333 74.6587 33.532 72.4547 35.272L72.2227 34.402C74.6587 32.4687 76.07 31.1733 76.4567 30.516V29.994C76.4567 29.0273 76.5534 28.37 76.7467 28.022C76.94 27.674 77.404 27.1907 78.1387 26.572C78.8734 25.9533 79.376 25.644 79.6467 25.644C79.9174 25.644 80.1494 25.7407 80.3427 25.934C80.5747 26.1273 80.6907 26.3207 80.6907 26.514C80.6907 26.7073 80.6134 26.9393 80.4587 27.21C80.3427 27.442 80.2074 27.6547 80.0527 27.848C79.9367 28.0027 79.7627 28.2153 79.5307 28.486C79.2987 28.718 79.144 28.892 79.0667 29.008C79.028 29.0853 78.97 29.24 78.8927 29.472C78.854 29.704 78.738 29.8973 78.5447 30.052C78.3514 30.2067 78.2547 30.4 78.2547 30.632C78.2547 30.864 78.4094 31.386 78.7187 32.198C79.028 32.9713 79.1827 33.5513 79.1827 33.938C79.1827 34.286 78.4674 35.156 77.0367 36.548C75.606 37.9013 74.8907 39.0033 74.8907 39.854C74.8907 40.318 75.1034 40.55 75.5287 40.55C76.07 40.55 77.0754 40.0667 78.5447 39.1L79.2407 38.636C81.754 36.896 84.1127 35.1367 86.3167 33.358L87.5347 32.372ZM93.7235 24.484C94.1102 24.484 94.4002 24.6 94.5935 24.832C94.8255 25.064 94.9415 25.3927 94.9415 25.818C94.9415 26.2433 94.6515 26.7847 94.0715 27.442C93.4915 28.0993 92.9888 28.428 92.5635 28.428C92.1382 28.428 91.8288 28.312 91.6355 28.08C91.4422 27.8093 91.3455 27.5193 91.3455 27.21C91.3455 26.862 91.6548 26.3207 92.2735 25.586C92.8922 24.8513 93.3755 24.484 93.7235 24.484ZM98.5375 32.314C98.8468 32.1207 99.0788 32.024 99.2335 32.024C99.4268 32.024 99.5235 32.14 99.5235 32.372V32.546C99.6782 32.546 98.6342 33.3967 96.3915 35.098C94.1875 36.7993 91.8095 38.5007 89.2575 40.202C86.7442 41.9033 85.1588 42.754 84.5015 42.754C83.3802 42.754 82.8195 42.29 82.8195 41.362C82.8195 40.2407 83.7862 38.1333 85.7195 35.04C87.6528 31.908 89.0642 30.342 89.9535 30.342C90.6108 30.342 90.9395 30.5933 90.9395 31.096C90.9395 31.5987 90.0502 32.9713 88.2715 35.214C86.4928 37.4567 85.6035 39.0613 85.6035 40.028C85.6035 40.5693 85.7968 40.84 86.1835 40.84C86.6088 40.84 87.6335 40.2987 89.2575 39.216C92.1575 37.2827 94.8255 35.33 97.2615 33.358L98.5375 32.314ZM121.997 32.546C113.838 39.3513 108.792 42.754 106.859 42.754C105.738 42.754 105.177 42.29 105.177 41.362C105.177 40.434 105.583 39.332 106.395 38.056C107.246 36.78 108.077 35.6587 108.889 34.692C109.74 33.6867 110.165 33.0873 110.165 32.894C110.165 32.7007 110.107 32.604 109.991 32.604C106.395 35.0013 104.249 36.4707 103.553 37.012C102.896 37.5533 101.794 38.4427 100.247 39.68C98.7391 40.9173 97.7531 41.6907 97.2891 42C96.8251 42.3093 96.3225 42.464 95.7811 42.464C95.2398 42.464 94.9691 42.232 94.9691 41.768C94.9691 41.2267 96.0518 39.5253 98.2171 36.664C100.305 33.8027 101.349 32.198 101.349 31.85C101.349 31.7727 101.272 31.734 101.117 31.734C101.001 31.734 99.3385 32.9133 96.1291 35.272L95.8971 34.402C98.6425 32.198 100.498 30.7867 101.465 30.168C102.432 29.5493 103.205 29.24 103.785 29.24C104.404 29.24 104.713 29.53 104.713 30.11C104.713 30.4967 103.611 32.082 101.407 34.866C99.2418 37.6113 98.1591 39.1 98.1591 39.332C98.1591 39.5253 98.2171 39.622 98.3331 39.622C98.4878 39.622 100.692 38.0753 104.945 34.982C109.237 31.85 111.847 30.284 112.775 30.284C113.046 30.284 113.297 30.4 113.529 30.632C113.8 30.8253 113.935 31.0187 113.935 31.212C113.935 31.676 112.91 33.2227 110.861 35.852C108.812 38.4427 107.787 39.912 107.787 40.26C107.787 40.608 108.019 40.782 108.483 40.782C108.986 40.782 110.03 40.26 111.615 39.216C114.515 37.3213 117.183 35.3687 119.619 33.358L120.895 32.314C121.166 32.1207 121.417 32.024 121.649 32.024C121.881 32.024 121.997 32.14 121.997 32.372V32.546ZM138.048 32.372C138.319 32.1787 138.57 32.082 138.802 32.082C139.034 32.082 139.15 32.2173 139.15 32.488V32.604C135.4 35.6973 132.461 37.94 130.334 39.332L118.734 46.872L115.138 51.918C109.57 59.5353 106.786 63.634 106.786 64.214C106.168 65.5673 105.568 66.244 104.988 66.244C104.254 66.244 103.886 65.7607 103.886 64.794C103.886 63.8273 104.37 62.532 105.336 60.908C106.264 59.284 107.192 57.9693 108.12 56.964L113.63 51.164C114.094 50.4293 115.042 49.076 116.472 47.104C117.903 45.132 118.85 43.8173 119.314 43.16L121.808 39.448L121.924 39.216C121.924 39.1387 121.886 39.1 121.808 39.1C119.527 40.9947 117.632 41.942 116.124 41.942C114.616 41.942 113.862 41.5167 113.862 40.666C113.862 39.7767 114.442 38.6167 115.602 37.186C116.762 35.7553 118.154 34.3633 119.778 33.01C121.441 31.6567 123.258 30.4967 125.23 29.53C127.241 28.5247 129 28.022 130.508 28.022C132.055 28.022 132.828 28.5633 132.828 29.646C132.828 30.4193 132.094 31.3473 130.624 32.43C129.194 33.5127 128.304 34.054 127.956 34.054C127.647 34.054 127.492 33.9767 127.492 33.822C127.492 33.59 127.647 33.3773 127.956 33.184C129.271 32.256 129.928 31.386 129.928 30.574C129.928 29.7233 129.58 29.298 128.884 29.298C127.183 29.298 124.805 30.748 121.75 33.648C118.734 36.5093 117.226 38.5393 117.226 39.738C117.226 40.086 117.497 40.26 118.038 40.26C118.618 40.26 119.585 39.8153 120.938 38.926C122.292 37.998 123.316 37.1087 124.012 36.258L125.578 34.286C125.772 34.0153 126.023 33.88 126.332 33.88C126.642 33.88 126.912 33.9767 127.144 34.17C127.376 34.3633 127.492 34.5567 127.492 34.75L120.474 44.494L129.058 39.1C131.61 37.5533 134.162 35.6973 136.714 33.532L138.048 32.372ZM161.136 32.372C161.446 32.1787 161.697 32.082 161.89 32.082C162.122 32.082 162.238 32.2173 162.238 32.488V32.604C159.261 35.1173 156.11 37.476 152.784 39.68C149.498 41.884 147.41 42.986 146.52 42.986C145.631 42.986 144.877 42.812 144.258 42.464C143.678 42.1547 143.388 41.7873 143.388 41.362C143.388 40.9367 143.504 40.5887 143.736 40.318C143.968 40.0087 144.181 39.854 144.374 39.854C144.568 39.854 144.877 40.1633 145.302 40.782C145.766 41.362 146.211 41.652 146.636 41.652C147.526 41.652 148.222 40.7047 148.724 38.81C149.227 36.9153 149.478 35.62 149.478 34.924C149.478 34.1893 149.42 33.822 149.304 33.822C149.227 33.822 149.15 33.8607 149.072 33.938L147.39 35.272L147.158 34.402C149.594 32.4687 151.006 31.1733 151.392 30.516C151.624 29.8973 151.953 29.588 152.378 29.588C152.649 29.588 152.784 29.6847 152.784 29.878C152.784 30.0713 152.649 30.4967 152.378 31.154C152.108 31.7727 151.74 33.2033 151.276 35.446C150.851 37.6887 150.638 38.984 150.638 39.332C150.638 39.68 150.735 39.854 150.928 39.854C153.635 38.1913 156.496 36.1227 159.512 33.648L161.136 32.372ZM176.113 32.372C176.384 32.1787 176.635 32.082 176.867 32.082C177.099 32.082 177.215 32.2173 177.215 32.488V32.604C173.194 35.9293 169.849 38.4233 167.181 40.086C164.513 41.7487 162.096 42.58 159.931 42.58C158.191 42.58 157.321 41.7293 157.321 40.028C157.321 37.5147 158.597 34.9433 161.149 32.314C163.701 29.646 165.847 28.312 167.587 28.312C168.554 28.312 169.037 28.8533 169.037 29.936C168.844 32.0627 165.789 34.924 159.873 38.52V39.1C159.873 40.376 160.53 41.014 161.845 41.014C163.198 41.014 164.648 40.5693 166.195 39.68C169.211 37.9013 172.034 35.8713 174.663 33.59L176.113 32.372ZM166.079 30.11C165.228 30.11 164.126 30.8253 162.773 32.256C161.458 33.6867 160.569 35.3107 160.105 37.128C161.961 36.0067 163.527 34.8273 164.803 33.59C166.079 32.314 166.717 31.4247 166.717 30.922C166.717 30.3807 166.504 30.11 166.079 30.11ZM188.978 32.372C189.249 32.1787 189.5 32.082 189.732 32.082C189.964 32.082 190.08 32.2173 190.08 32.488V32.604C187.18 34.924 184.319 37.1087 181.496 39.158C178.673 41.1687 176.605 42.174 175.29 42.174C174.323 42.174 173.84 41.652 173.84 40.608C173.84 39.564 174.304 38.52 175.232 37.476C176.16 36.432 177.069 35.5233 177.958 34.75C178.886 33.9767 179.35 33.474 179.35 33.242C179.35 32.9713 179.195 32.6813 178.886 32.372C178.615 32.024 178.383 31.792 178.19 31.676C177.533 32.3333 176.102 33.532 173.898 35.272L173.666 34.402C176.102 32.4687 177.513 31.1733 177.9 30.516V29.994C177.9 29.0273 177.997 28.37 178.19 28.022C178.383 27.674 178.847 27.1907 179.582 26.572C180.317 25.9533 180.819 25.644 181.09 25.644C181.361 25.644 181.593 25.7407 181.786 25.934C182.018 26.1273 182.134 26.3207 182.134 26.514C182.134 26.7073 182.057 26.9393 181.902 27.21C181.786 27.442 181.651 27.6547 181.496 27.848C181.38 28.0027 181.206 28.2153 180.974 28.486C180.742 28.718 180.587 28.892 180.51 29.008C180.471 29.0853 180.413 29.24 180.336 29.472C180.297 29.704 180.181 29.8973 179.988 30.052C179.795 30.2067 179.698 30.4 179.698 30.632C179.698 30.864 179.853 31.386 180.162 32.198C180.471 32.9713 180.626 33.5513 180.626 33.938C180.626 34.286 179.911 35.156 178.48 36.548C177.049 37.9013 176.334 39.0033 176.334 39.854C176.334 40.318 176.547 40.55 176.972 40.55C177.513 40.55 178.519 40.0667 179.988 39.1L180.684 38.636C183.197 36.896 185.556 35.1367 187.76 33.358L188.978 32.372ZM199.169 32.778L198.241 32.372C197.506 32.372 193.504 35.5233 186.235 41.826C185.539 42.4447 185.017 42.754 184.669 42.754C184.36 42.754 184.108 42.638 183.915 42.406C183.76 42.174 183.683 41.9227 183.683 41.652C183.683 41.3427 184.34 40.028 185.655 37.708C186.97 35.3493 187.627 34.0927 187.627 33.938C187.627 33.7447 187.55 33.648 187.395 33.648C186.854 33.9187 186.448 34.054 186.177 34.054C185.906 34.054 185.771 33.9767 185.771 33.822C185.771 33.6287 185.848 33.4547 186.003 33.3C187.627 32.024 188.748 31.386 189.367 31.386C190.024 31.386 190.353 31.7533 190.353 32.488C190.353 33.2227 189.87 34.4213 188.903 36.084C187.936 37.708 187.453 38.6553 187.453 38.926C187.453 39.1967 187.511 39.332 187.627 39.332C187.782 39.332 187.956 39.2547 188.149 39.1C188.342 38.9453 189.367 38.056 191.223 36.432C197.526 31.4827 200.967 29.008 201.547 29.008C201.586 29.008 201.605 29.008 201.605 29.008C201.837 29.008 202.069 29.0853 202.301 29.24C202.533 29.3947 202.649 29.6267 202.649 29.936C202.649 30.2453 202.204 30.806 201.315 31.618C200.426 32.3913 199.71 32.778 199.169 32.778ZM210.007 24.484C210.393 24.484 210.683 24.6 210.877 24.832C211.109 25.064 211.225 25.3927 211.225 25.818C211.225 26.2433 210.935 26.7847 210.355 27.442C209.775 28.0993 209.272 28.428 208.847 28.428C208.421 28.428 208.112 28.312 207.919 28.08C207.725 27.8093 207.629 27.5193 207.629 27.21C207.629 26.862 207.938 26.3207 208.557 25.586C209.175 24.8513 209.659 24.484 210.007 24.484ZM214.821 32.314C215.13 32.1207 215.362 32.024 215.517 32.024C215.71 32.024 215.807 32.14 215.807 32.372V32.546C215.961 32.546 214.917 33.3967 212.675 35.098C210.471 36.7993 208.093 38.5007 205.541 40.202C203.027 41.9033 201.442 42.754 200.785 42.754C199.663 42.754 199.103 42.29 199.103 41.362C199.103 40.2407 200.069 38.1333 202.003 35.04C203.936 31.908 205.347 30.342 206.237 30.342C206.894 30.342 207.223 30.5933 207.223 31.096C207.223 31.5987 206.333 32.9713 204.555 35.214C202.776 37.4567 201.887 39.0613 201.887 40.028C201.887 40.5693 202.08 40.84 202.467 40.84C202.892 40.84 203.917 40.2987 205.541 39.216C208.441 37.2827 211.109 35.33 213.545 33.358L214.821 32.314ZM228.768 32.372C229.078 32.1787 229.329 32.082 229.522 32.082C229.754 32.082 229.87 32.2173 229.87 32.488V32.604C226.816 35.3107 223.664 37.6887 220.416 39.738C217.168 41.7873 214.462 42.812 212.296 42.812C210.595 42.812 209.744 41.8067 209.744 39.796C209.744 37.7467 210.962 35.5233 213.398 33.126C215.873 30.7287 218.541 29.53 221.402 29.53C222.253 29.6073 222.775 29.7427 222.968 29.936C223.2 30.1293 223.316 30.4 223.316 30.748C223.316 31.096 222.949 31.734 222.214 32.662C221.518 33.5513 220.88 33.996 220.3 33.996C219.643 33.88 219.314 33.648 219.314 33.3C219.314 33.1453 219.488 32.894 219.836 32.546C220.494 31.966 220.822 31.5407 220.822 31.27C220.822 30.9993 220.61 30.864 220.184 30.864C218.831 30.9027 217.13 32.024 215.08 34.228C213.031 36.3933 212.006 38.1913 212.006 39.622C212.006 40.7047 212.702 41.246 214.094 41.246C215.525 41.246 217.052 40.7433 218.676 39.738C221.538 37.998 224.418 35.9293 227.318 33.532L228.768 32.372ZM243.798 32.372C244.069 32.1787 244.32 32.082 244.552 32.082C244.784 32.082 244.9 32.2173 244.9 32.488V32.604C240.879 35.9293 237.534 38.4233 234.866 40.086C232.198 41.7487 229.782 42.58 227.616 42.58C225.876 42.58 225.006 41.7293 225.006 40.028C225.006 37.5147 226.282 34.9433 228.834 32.314C231.386 29.646 233.532 28.312 235.272 28.312C236.239 28.312 236.722 28.8533 236.722 29.936C236.529 32.0627 233.474 34.924 227.558 38.52V39.1C227.558 40.376 228.216 41.014 229.53 41.014C230.884 41.014 232.334 40.5693 233.88 39.68C236.896 37.9013 239.719 35.8713 242.348 33.59L243.798 32.372ZM233.764 30.11C232.914 30.11 231.812 30.8253 230.458 32.256C229.144 33.6867 228.254 35.3107 227.79 37.128C229.646 36.0067 231.212 34.8273 232.488 33.59C233.764 32.314 234.402 31.4247 234.402 30.922C234.402 30.3807 234.19 30.11 233.764 30.11ZM255.33 32.372C255.639 32.1787 255.89 32.082 256.084 32.082C256.316 32.082 256.432 32.2173 256.432 32.488V32.604C253.454 35.1173 250.303 37.476 246.978 39.68C243.691 41.884 241.603 42.986 240.714 42.986C239.824 42.986 239.07 42.812 238.452 42.464C237.872 42.1547 237.582 41.7873 237.582 41.362C237.582 40.9367 237.698 40.5887 237.93 40.318C238.162 40.0087 238.374 39.854 238.568 39.854C238.761 39.854 239.07 40.1633 239.496 40.782C239.96 41.362 240.404 41.652 240.83 41.652C241.719 41.652 242.415 40.7047 242.918 38.81C243.42 36.9153 243.672 35.62 243.672 34.924C243.672 34.1893 243.614 33.822 243.498 33.822C243.42 33.822 243.343 33.8607 243.266 33.938L241.584 35.272L241.352 34.402C243.788 32.4687 245.199 31.1733 245.586 30.516C245.818 29.8973 246.146 29.588 246.572 29.588C246.842 29.588 246.978 29.6847 246.978 29.878C246.978 30.0713 246.842 30.4967 246.572 31.154C246.301 31.7727 245.934 33.2033 245.47 35.446C245.044 37.6887 244.832 38.984 244.832 39.332C244.832 39.68 244.928 39.854 245.122 39.854C247.828 38.1913 250.69 36.1227 253.706 33.648L255.33 32.372ZM273.218 24.484C273.604 24.484 273.894 24.6 274.088 24.832C274.32 25.064 274.436 25.3927 274.436 25.818C274.436 26.2433 274.146 26.7847 273.566 27.442C272.986 28.0993 272.483 28.428 272.058 28.428C271.632 28.428 271.323 28.312 271.13 28.08C270.936 27.8093 270.84 27.5193 270.84 27.21C270.84 26.862 271.149 26.3207 271.768 25.586C272.386 24.8513 272.87 24.484 273.218 24.484ZM278.032 32.314C278.341 32.1207 278.573 32.024 278.728 32.024C278.921 32.024 279.018 32.14 279.018 32.372V32.546C279.172 32.546 278.128 33.3967 275.886 35.098C273.682 36.7993 271.304 38.5007 268.752 40.202C266.238 41.9033 264.653 42.754 263.996 42.754C262.874 42.754 262.314 42.29 262.314 41.362C262.314 40.2407 263.28 38.1333 265.214 35.04C267.147 31.908 268.558 30.342 269.448 30.342C270.105 30.342 270.434 30.5933 270.434 31.096C270.434 31.5987 269.544 32.9713 267.766 35.214C265.987 37.4567 265.098 39.0613 265.098 40.028C265.098 40.5693 265.291 40.84 265.678 40.84C266.103 40.84 267.128 40.2987 268.752 39.216C271.652 37.2827 274.32 35.33 276.756 33.358L278.032 32.314ZM301.491 32.546C293.333 39.3513 288.287 42.754 286.353 42.754C285.232 42.754 284.671 42.29 284.671 41.362C284.671 40.434 285.077 39.332 285.889 38.056C286.74 36.78 287.571 35.6587 288.383 34.692C289.234 33.6867 289.659 33.0873 289.659 32.894C289.659 32.7007 289.601 32.604 289.485 32.604C285.889 35.0013 283.743 36.4707 283.047 37.012C282.39 37.5533 281.288 38.4427 279.741 39.68C278.233 40.9173 277.247 41.6907 276.783 42C276.319 42.3093 275.817 42.464 275.275 42.464C274.734 42.464 274.463 42.232 274.463 41.768C274.463 41.2267 275.546 39.5253 277.711 36.664C279.799 33.8027 280.843 32.198 280.843 31.85C280.843 31.7727 280.766 31.734 280.611 31.734C280.495 31.734 278.833 32.9133 275.623 35.272L275.391 34.402C278.137 32.198 279.993 30.7867 280.959 30.168C281.926 29.5493 282.699 29.24 283.279 29.24C283.898 29.24 284.207 29.53 284.207 30.11C284.207 30.4967 283.105 32.082 280.901 34.866C278.736 37.6113 277.653 39.1 277.653 39.332C277.653 39.5253 277.711 39.622 277.827 39.622C277.982 39.622 280.186 38.0753 284.439 34.982C288.731 31.85 291.341 30.284 292.269 30.284C292.54 30.284 292.791 30.4 293.023 30.632C293.294 30.8253 293.429 31.0187 293.429 31.212C293.429 31.676 292.405 33.2227 290.355 35.852C288.306 38.4427 287.281 39.912 287.281 40.26C287.281 40.608 287.513 40.782 287.977 40.782C288.48 40.782 289.524 40.26 291.109 39.216C294.009 37.3213 296.677 35.3687 299.113 33.358L300.389 32.314C300.66 32.1207 300.911 32.024 301.143 32.024C301.375 32.024 301.491 32.14 301.491 32.372V32.546ZM321.092 20.018C320.821 20.018 320.608 19.902 320.454 19.67C320.338 19.438 320.26 19.3027 320.222 19.264C319.796 19.6893 319.197 20.2307 318.424 20.888C317.689 21.5453 316.355 22.4153 314.422 23.498C312.488 24.5807 310.768 25.122 309.26 25.122C306.746 25.122 305.49 24.1553 305.49 22.222C305.49 20.134 306.824 17.4273 309.492 14.102C312.16 10.7767 315.466 7.81867 319.41 5.228C323.392 2.59867 326.95 1.284 330.082 1.284C331.899 1.284 333.272 1.82533 334.2 2.908C335.166 3.99067 335.65 5.402 335.65 7.142C335.65 8.84333 334.896 11.2987 333.388 14.508C339.42 10.0227 343.615 7.78 345.974 7.78C346.438 7.78 346.824 7.91533 347.134 8.186C347.443 8.45667 347.598 8.824 347.598 9.288C347.598 10.0613 346.012 12.5553 342.842 16.77C339.71 20.9847 336.558 25.3927 333.388 29.994C330.217 34.5953 328.632 37.766 328.632 39.506C328.632 40.5887 329.231 41.13 330.43 41.13C332.247 41.13 334.818 39.4673 338.144 36.142C338.646 35.6393 339.072 35.388 339.42 35.388C339.652 35.388 339.768 35.562 339.768 35.91C339.768 36.2193 339.149 36.9347 337.912 38.056C336.674 39.1387 335.128 40.202 333.272 41.246C331.454 42.29 329.869 42.812 328.516 42.812C326.698 42.812 325.79 42.058 325.79 40.55C325.79 39.0033 326.737 36.6447 328.632 33.474C330.565 30.2647 332.692 27.152 335.012 24.136C341.16 16.2093 344.234 11.5887 344.234 10.274C344.234 10.042 344.098 9.926 343.828 9.926C341.624 9.926 337.873 12.014 332.576 16.19C329.598 22.0287 325.538 28.0993 320.396 34.402C315.292 40.7047 311.85 43.856 310.072 43.856C309.105 43.856 308.622 43.45 308.622 42.638C308.622 40.1247 310.787 36.3933 315.118 31.444C319.448 26.456 324.436 21.6807 330.082 17.118C332.208 12.8647 333.272 9.53933 333.272 7.142C333.272 4.20333 331.706 2.734 328.574 2.734C326.176 2.734 323.276 3.91333 319.874 6.272C316.51 8.592 313.629 11.2407 311.232 14.218C308.834 17.1953 307.636 19.554 307.636 21.294C307.636 22.7633 308.602 23.498 310.536 23.498C311.85 23.498 313.726 22.7053 316.162 21.12C318.598 19.5347 319.99 18.4327 320.338 17.814C322 14.8753 322.948 13.2513 323.18 12.942C323.992 11.666 324.649 11.028 325.152 11.028C325.345 11.028 325.461 11.1633 325.5 11.434C325.538 11.7047 325.5 11.9753 325.384 12.246C325.306 12.478 325.152 12.7873 324.92 13.174C324.688 13.522 324.475 13.8507 324.282 14.16C324.088 14.4307 323.818 14.798 323.47 15.262C323.16 15.726 322.87 16.132 322.6 16.48C322.368 16.828 322.174 17.1567 322.02 17.466C321.788 17.93 321.672 18.4713 321.672 19.09C321.672 19.7087 321.478 20.018 321.092 20.018ZM310.826 42.464C311.87 42.4253 314.46 39.8347 318.598 34.692C322.774 29.5107 326.254 24.3293 329.038 19.148C324.166 23.324 319.874 27.6547 316.162 32.14C312.45 36.6253 310.594 39.9313 310.594 42.058C310.594 42.3287 310.671 42.464 310.826 42.464ZM360.252 32.372C360.522 32.1787 360.774 32.082 361.006 32.082C361.238 32.082 361.354 32.2173 361.354 32.488V32.604C357.332 35.9293 353.988 38.4233 351.32 40.086C348.652 41.7487 346.235 42.58 344.07 42.58C342.33 42.58 341.46 41.7293 341.46 40.028C341.46 37.5147 342.736 34.9433 345.288 32.314C347.84 29.646 349.986 28.312 351.726 28.312C352.692 28.312 353.176 28.8533 353.176 29.936C352.982 32.0627 349.928 34.924 344.012 38.52V39.1C344.012 40.376 344.669 41.014 345.984 41.014C347.337 41.014 348.787 40.5693 350.334 39.68C353.35 37.9013 356.172 35.8713 358.802 33.59L360.252 32.372ZM350.218 30.11C349.367 30.11 348.265 30.8253 346.912 32.256C345.597 33.6867 344.708 35.3107 344.244 37.128C346.1 36.0067 347.666 34.8273 348.942 33.59C350.218 32.314 350.856 31.4247 350.856 30.922C350.856 30.3807 350.643 30.11 350.218 30.11ZM374.277 34.344L373.929 32.488C373.929 32.1787 374.006 31.908 374.161 31.676C374.315 31.444 374.567 31.328 374.915 31.328C375.263 31.328 375.533 31.5987 375.727 32.14C375.959 32.6427 376.075 33.1647 376.075 33.706C376.075 35.678 374.992 37.708 372.827 39.796C370.661 41.884 368.419 42.928 366.099 42.928C365.557 42.928 365.132 42.754 364.823 42.406C364.513 42.0967 364.359 41.6907 364.359 41.188C364.359 40.6467 364.61 39.8733 365.113 38.868C365.654 37.8627 365.925 37.244 365.925 37.012C365.925 36.78 365.867 36.664 365.751 36.664C365.635 36.664 365.538 36.7027 365.461 36.78C361.594 40.028 358.752 41.652 356.935 41.652C355.852 41.652 355.311 41.188 355.311 40.26C355.311 38.7907 356.393 36.7413 358.559 34.112C360.763 31.444 362.329 30.11 363.257 30.11C363.837 30.11 364.127 30.226 364.127 30.458C364.127 30.6513 363.759 31.096 363.025 31.792C362.329 32.488 361.246 33.7447 359.777 35.562C358.346 37.3407 357.631 38.636 357.631 39.448C357.631 39.9507 358.017 40.202 358.791 40.202C359.564 40.202 361.265 39.158 363.895 37.07C366.524 34.9433 368.651 33.01 370.275 31.27C370.893 30.6513 371.415 30.342 371.841 30.342C372.305 30.342 372.537 30.4967 372.537 30.806C372.537 31.0767 372.44 31.3473 372.247 31.618C372.092 31.8887 371.512 32.604 370.507 33.764C367.993 36.8187 366.737 39.216 366.737 40.956C366.737 41.42 366.911 41.652 367.259 41.652C368.689 41.652 370.217 40.898 371.841 39.39C373.465 37.8433 374.277 36.1613 374.277 34.344ZM428.577 33.184C428.925 33.184 429.099 33.416 429.099 33.88C429.099 35.0787 425.697 37.882 418.891 42.29C412.086 46.7367 406.441 50.0233 401.955 52.15L400.563 54.064C403.27 55.108 404.623 56.79 404.623 59.11C404.623 61.4687 403.463 64.1753 401.143 67.23C398.823 70.2847 396.31 72.8173 393.603 74.828C390.897 76.8773 388.77 77.902 387.223 77.902C385.715 77.902 384.961 77.1867 384.961 75.756C384.961 73.4747 389.002 66.4567 397.083 54.702C396.967 54.6633 396.774 54.644 396.503 54.644C394.145 54.992 392.927 55.166 392.849 55.166C392.192 55.166 391.863 54.9533 391.863 54.528C391.863 54.1413 392.385 53.89 393.429 53.774C394.821 53.4647 396.697 52.8073 399.055 51.802C401.453 48.3607 404.604 44.03 408.509 38.81C403.676 42.0193 400.254 43.624 398.243 43.624C397.431 43.624 396.813 43.392 396.387 42.928C396.001 42.5027 395.807 41.652 395.807 40.376C395.807 39.0613 396.581 37.2247 398.127 34.866C399.674 32.4687 401.549 29.994 403.753 27.442C405.996 24.8513 408.219 22.2413 410.423 19.612C412.666 16.944 414.561 14.3147 416.107 11.724C417.654 9.09467 418.427 6.89066 418.427 5.112C418.427 2.83066 416.803 1.69 413.555 1.69C410.887 1.69 407.717 2.618 404.043 4.474C400.409 6.33 397.199 8.74666 394.415 11.724C391.631 14.6627 390.239 17.466 390.239 20.134C390.239 21.9513 391.303 22.86 393.429 22.86C394.976 22.86 396.6 22.4347 398.301 21.584C400.003 20.6947 401.491 19.6507 402.767 18.452C405.435 15.9773 407.117 14.0633 407.813 12.71C408.161 12.0913 408.529 11.782 408.915 11.782C409.341 11.782 409.553 11.956 409.553 12.304C409.553 13.0773 408.625 14.4307 406.769 16.364C404.913 18.2587 402.574 20.076 399.751 21.816C396.929 23.556 394.589 24.426 392.733 24.426C390.877 24.426 389.621 23.9813 388.963 23.092C388.306 22.2027 387.977 21.1393 387.977 19.902C387.977 17.7367 389.369 15.1267 392.153 12.072C394.976 8.97867 398.475 6.272 402.651 3.952C406.866 1.632 410.713 0.471999 414.193 0.471999C418.563 0.471999 420.747 2.386 420.747 6.214C420.747 8.10867 419.993 10.3513 418.485 12.942C417.016 15.5327 415.199 18.0847 413.033 20.598C410.907 23.1113 408.761 25.6053 406.595 28.08C401.491 33.9187 398.939 38.1527 398.939 40.782C398.939 41.6327 399.481 42.058 400.563 42.058C402.265 42.058 405.435 40.2793 410.075 36.722C416.146 28.7567 421.579 22.1447 426.373 16.886C431.207 11.5887 434.397 8.94 435.943 8.94C437.026 8.94 437.567 9.346 437.567 10.158C437.567 11.9367 435.325 15.1847 430.839 19.902C426.354 24.5807 421.269 29.1627 415.585 33.648C411.255 39.2933 407.33 44.5907 403.811 49.54C408.335 47.2587 412.879 44.61 417.441 41.594C422.043 38.578 425.484 35.9293 427.765 33.648C428.075 33.3387 428.345 33.184 428.577 33.184ZM393.255 73.378C395.537 71.522 397.625 69.2213 399.519 66.476C401.453 63.7307 402.419 61.3913 402.419 59.458C402.419 57.5247 401.491 56.1713 399.635 55.398C391.554 66.9593 387.513 73.5713 387.513 75.234C387.513 75.8913 387.765 76.22 388.267 76.22C389.35 76.22 391.013 75.2727 393.255 73.378ZM434.899 10.68C433.855 10.68 428.539 16.886 418.949 29.298C423.319 25.354 427.147 21.584 430.433 17.988C433.72 14.3533 435.363 12.0527 435.363 11.086C435.363 10.8153 435.209 10.68 434.899 10.68ZM439.191 37.012C441.356 37.012 443.947 35.794 446.963 33.358L447.949 33.648C444.159 36.8187 440.892 38.404 438.147 38.404C437.837 38.404 437.605 38.3847 437.451 38.346C436.407 39.622 435.266 40.666 434.029 41.478C432.791 42.2513 431.709 42.638 430.781 42.638C429.311 42.638 428.577 41.826 428.577 40.202C428.577 38.5393 429.949 36.3353 432.695 33.59C432.231 32.4687 431.999 31.2893 431.999 30.052C431.999 28.8147 432.443 27.8093 433.333 27.036C434.222 26.2627 435.247 25.876 436.407 25.876C437.605 25.876 438.611 26.2627 439.423 27.036C440.235 27.8093 440.641 28.9113 440.641 30.342C440.641 32.546 439.925 34.75 438.495 36.954C438.649 36.9927 438.881 37.012 439.191 37.012ZM437.335 36.432C438.533 34.4213 439.133 32.72 439.133 31.328C439.133 29.8973 438.785 28.8533 438.089 28.196C437.393 27.5 436.716 27.152 436.059 27.152C434.705 27.152 434.029 27.848 434.029 29.24C434.029 30.632 434.338 32.024 434.957 33.416C435.575 34.7693 436.368 35.7747 437.335 36.432ZM430.955 39.854C430.955 40.6273 431.457 41.014 432.463 41.014C433.468 41.014 434.744 39.9893 436.291 37.94C435.247 37.3987 434.319 36.4513 433.507 35.098C431.805 36.954 430.955 38.5393 430.955 39.854ZM460.966 32.372C461.237 32.1787 461.488 32.082 461.72 32.082C461.952 32.082 462.068 32.2173 462.068 32.488V32.604C459.168 34.924 456.307 37.1087 453.484 39.158C450.662 41.1687 448.593 42.174 447.278 42.174C446.312 42.174 445.828 41.652 445.828 40.608C445.828 39.564 446.292 38.52 447.22 37.476C448.148 36.432 449.057 35.5233 449.946 34.75C450.874 33.9767 451.338 33.474 451.338 33.242C451.338 32.9713 451.184 32.6813 450.874 32.372C450.604 32.024 450.372 31.792 450.178 31.676C449.521 32.3333 448.09 33.532 445.886 35.272L445.654 34.402C448.09 32.4687 449.502 31.1733 449.888 30.516V29.994C449.888 29.0273 449.985 28.37 450.178 28.022C450.372 27.674 450.836 27.1907 451.57 26.572C452.305 25.9533 452.808 25.644 453.078 25.644C453.349 25.644 453.581 25.7407 453.774 25.934C454.006 26.1273 454.122 26.3207 454.122 26.514C454.122 26.7073 454.045 26.9393 453.89 27.21C453.774 27.442 453.639 27.6547 453.484 27.848C453.368 28.0027 453.194 28.2153 452.962 28.486C452.73 28.718 452.576 28.892 452.498 29.008C452.46 29.0853 452.402 29.24 452.324 29.472C452.286 29.704 452.17 29.8973 451.976 30.052C451.783 30.2067 451.686 30.4 451.686 30.632C451.686 30.864 451.841 31.386 452.15 32.198C452.46 32.9713 452.614 33.5513 452.614 33.938C452.614 34.286 451.899 35.156 450.468 36.548C449.038 37.9013 448.322 39.0033 448.322 39.854C448.322 40.318 448.535 40.55 448.96 40.55C449.502 40.55 450.507 40.0667 451.976 39.1L452.672 38.636C455.186 36.896 457.544 35.1367 459.748 33.358L460.966 32.372ZM473.883 25.702C473.883 25.354 473.632 25.18 473.129 25.18C472.665 25.18 471.718 25.702 470.287 26.746C468.856 27.7513 467.561 28.776 466.401 29.82L464.719 31.328C464.719 31.4053 464.835 31.444 465.067 31.444C465.454 31.444 465.705 31.7533 465.821 32.372C465.937 32.952 466.15 33.242 466.459 33.242C467.464 33.242 468.953 32.2173 470.925 30.168C472.897 28.1187 473.883 26.63 473.883 25.702ZM479.393 32.372C479.664 32.1787 479.915 32.082 480.147 32.082C480.379 32.082 480.495 32.2173 480.495 32.488V32.604C477.44 35.3107 474.386 37.6307 471.331 39.564C469.05 41.2653 467.194 42.116 465.763 42.116C464.371 42.116 463.385 41.594 462.805 40.55C462.264 39.506 461.993 38.4233 461.993 37.302C461.993 36.142 462.109 35.3493 462.341 34.924C462.573 34.4987 462.689 34.2473 462.689 34.17C462.689 34.054 462.573 33.996 462.341 33.996C461.993 33.996 460.794 35.33 458.745 37.998C456.696 40.666 455.555 42 455.323 42C455.091 42 454.859 41.942 454.627 41.826C454.434 41.6713 454.337 41.478 454.337 41.246C454.337 41.014 454.608 40.4533 455.149 39.564C455.729 38.6747 457.566 36.0647 460.659 31.734C463.752 27.4033 465.357 25.1413 465.473 24.948C465.589 24.716 465.647 24.5613 465.647 24.484C465.647 24.4067 465.57 24.368 465.415 24.368C465.299 24.368 465.202 24.4067 465.125 24.484C465.048 24.5227 464.468 24.9093 463.385 25.644C460.949 27.3067 459.267 28.138 458.339 28.138C457.411 28.138 456.947 27.7707 456.947 27.036C456.947 26.4173 457.14 25.876 457.527 25.412C457.952 24.948 458.416 24.716 458.919 24.716C459.151 24.716 459.344 24.9867 459.499 25.528C459.654 26.0307 459.905 26.282 460.253 26.282C460.601 26.282 461.026 26.1467 461.529 25.876C462.032 25.6053 462.534 25.2767 463.037 24.89C463.578 24.5033 464.178 24.0393 464.835 23.498C465.531 22.918 466.092 22.4347 466.517 22.048C467.793 20.888 468.566 20.1727 468.837 19.902C469.572 18.6647 472.356 15.1267 477.189 9.288C477.769 8.55333 478.33 8.186 478.871 8.186C479.451 8.186 479.741 8.32133 479.741 8.592C479.741 8.86267 479.644 9.13333 479.451 9.404C479.258 9.636 477.808 11.5113 475.101 15.03C472.394 18.51 469.668 22.0867 466.923 25.76C464.178 29.3947 462.805 31.328 462.805 31.56C462.805 31.792 462.902 31.908 463.095 31.908C463.675 31.2893 464.41 30.5353 465.299 29.646C466.227 28.718 467.793 27.5 469.997 25.992C472.201 24.4453 473.941 23.672 475.217 23.672C476.532 23.672 477.189 24.02 477.189 24.716C477.189 25.992 475.7 27.8867 472.723 30.4C469.746 32.9133 467.677 34.17 466.517 34.17L465.415 33.938C465.067 33.938 464.777 34.2473 464.545 34.866C464.313 35.446 464.197 36.1227 464.197 36.896C464.197 39.2547 465.086 40.434 466.865 40.434C467.793 40.434 468.837 40.0667 469.997 39.332C472.472 37.824 475.12 35.8907 477.943 33.532L479.393 32.372Z" fill="#ACACAC"/>
</svg>
