<svg width="499" height="66" viewBox="0 0 499 66" fill="none" xmlns="http://www.w3.org/2000/svg">
<path d="M4.002 19.888C6.05133 19.888 8.294 19.5593 10.73 18.902C15.2927 13.682 20.1453 9.274 25.288 5.678C30.4693 2.04333 34.8387 0.225999 38.396 0.225999C40.1747 0.225999 41.064 0.670666 41.064 1.56C41.064 2.75866 39.7107 4.47933 37.004 6.722C34.2973 8.96466 30.7787 11.2653 26.448 13.624C22.1173 15.9827 17.864 17.858 13.688 19.25C10.556 22.8847 8.02333 26.4033 6.09 29.806C4.15667 33.2087 3.19 36.012 3.19 38.216C3.19 41.3093 5.162 42.856 9.106 42.856C11.31 42.856 13.746 42.16 16.414 40.768C19.082 39.376 21.286 38.0033 23.026 36.65C23.4127 36.3793 23.7413 36.244 24.012 36.244C24.3213 36.244 24.476 36.3987 24.476 36.708C24.476 36.9013 24.3987 37.0753 24.244 37.23C22.4267 38.5447 20.8027 39.6273 19.372 40.478C17.98 41.3287 16.1433 42.16 13.862 42.972C11.5807 43.8227 9.396 44.248 7.308 44.248C2.436 44.248 0 42.3727 0 38.622C0 34.098 3.132 28.0467 9.396 20.468C7.54 20.932 5.76133 21.222 4.06 21.338C3.596 21.2607 3.364 21.0093 3.364 20.584C3.364 20.1587 3.57667 19.9267 4.002 19.888ZM36.598 1.85C34.3167 1.85 31.146 3.37733 27.086 6.432C23.0647 9.448 19.082 13.16 15.138 17.568C18.734 16.292 22.3493 14.6293 25.984 12.58C29.6573 10.492 32.596 8.53933 34.8 6.722C37.004 4.866 38.106 3.51266 38.106 2.662C38.106 2.12067 37.6033 1.85 36.598 1.85ZM37.2786 34.04C37.0466 34.04 36.9306 33.9627 36.9306 33.808C36.9306 33.6147 37.0659 33.402 37.3366 33.17C38.6126 32.126 39.2506 31.1787 39.2506 30.328C39.2506 29.7867 38.7673 29.4773 37.8006 29.4C36.0606 29.4387 33.9726 30.6953 31.5366 33.17C29.1393 35.6447 27.9406 37.5007 27.9406 38.738C27.9406 39.1633 28.1726 39.376 28.6366 39.376C29.1393 39.376 29.7966 39.0473 30.6086 38.39C31.3433 37.926 32.7159 36.766 34.7266 34.91C35.1906 34.446 35.6353 34.214 36.0606 34.214C36.6019 34.214 36.8726 34.4653 36.8726 34.968C36.8726 35.1613 36.8146 35.316 36.6986 35.432C36.5826 35.548 36.3699 35.7993 36.0606 36.186C35.7513 36.534 35.4806 36.8627 35.2486 37.172C34.5526 38.1773 34.2046 38.8347 34.2046 39.144C34.2046 39.9173 34.5139 40.304 35.1326 40.304C35.9446 40.304 37.4719 39.5693 39.7146 38.1C41.9573 36.592 44.0066 35.084 45.8626 33.576L48.6466 31.372C48.9173 31.1787 49.1686 31.082 49.4006 31.082C49.6326 31.082 49.7486 31.2173 49.7486 31.488V31.604C46.7713 34.1173 43.6199 36.476 40.2946 38.68C37.0079 40.884 34.8426 41.986 33.7986 41.986C32.5613 41.986 31.9426 41.3287 31.9426 40.014C31.9426 39.7047 32.0006 39.4147 32.1166 39.144C32.2326 38.8733 32.2906 38.68 32.2906 38.564C32.2906 38.448 32.2519 38.3707 32.1746 38.332C32.0586 38.332 31.3046 38.854 29.9126 39.898C28.5593 40.942 27.3606 41.464 26.3166 41.464C25.3113 41.464 24.8086 40.9227 24.8086 39.84C24.8086 38.7573 25.5239 37.3073 26.9546 35.49C28.4239 33.634 30.3766 31.952 32.8126 30.444C35.2486 28.936 37.6266 28.182 39.9466 28.182C40.4879 28.182 40.9326 28.3173 41.2806 28.588C41.6673 28.8587 41.8606 29.284 41.8606 29.864C41.8606 30.4053 41.2999 31.2367 40.1786 32.358C39.0573 33.4793 38.0906 34.04 37.2786 34.04ZM79.9553 16.408L71.6613 16.002C68.2586 16.002 64.8753 16.1373 61.5113 16.408L61.8013 17.568C61.8013 17.9933 60.5446 19.6173 58.0313 22.44C55.5179 25.224 53.0046 28.2787 50.4913 31.604C47.9779 34.8907 46.7213 37.3267 46.7213 38.912C46.7213 39.5307 46.9339 39.84 47.3593 39.84C47.8233 39.84 48.8479 39.2987 50.4333 38.216C53.3719 36.2827 56.0593 34.33 58.4953 32.358L59.7713 31.314C60.0419 31.1207 60.2739 31.024 60.4673 31.024C60.6606 31.024 60.7573 31.14 60.7573 31.372V31.546C60.9119 31.546 59.8679 32.3967 57.6253 34.098C55.4213 35.7993 53.0433 37.5007 50.4913 39.202C47.9779 40.9033 46.3926 41.754 45.7353 41.754C44.6139 41.754 44.0533 41.2513 44.0533 40.246C44.0533 38.7767 44.8653 36.7467 46.4893 34.156C48.1519 31.5653 49.9499 29.1293 51.8833 26.848C53.8553 24.528 55.7113 22.3433 57.4513 20.294C59.2299 18.2447 60.1966 16.988 60.3513 16.524C56.0979 16.9107 52.8306 17.3747 50.5493 17.916L49.3893 18.148C49.0799 18.1867 48.9253 18.4767 48.9253 19.018C48.9253 19.25 48.6546 19.366 48.1133 19.366C47.5719 19.366 46.8953 19.25 46.0833 19.018C45.3099 18.7473 44.9233 18.38 44.9233 17.916C44.9233 17.452 45.3099 17.1427 46.0833 16.988C51.8059 15.9827 55.8659 15.3833 58.2633 15.19C60.6606 14.958 62.2459 14.8227 63.0193 14.784C63.8313 14.7067 65.0686 14.6487 66.7313 14.61C68.4326 14.5713 69.5733 14.552 70.1533 14.552C71.8933 14.4747 73.9233 14.436 76.2433 14.436C78.6019 14.436 80.0326 14.5327 80.5353 14.726C81.0379 14.9193 81.2893 15.2867 81.2893 15.828C81.2893 16.2147 80.8446 16.408 79.9553 16.408ZM74.5875 31.372C74.8582 31.1787 75.1095 31.082 75.3415 31.082C75.5735 31.082 75.6895 31.2173 75.6895 31.488V31.604C71.6682 34.9293 68.3235 37.4233 65.6555 39.086C62.9875 40.7487 60.5709 41.58 58.4055 41.58C56.6655 41.58 55.7955 40.7293 55.7955 39.028C55.7955 36.5147 57.0715 33.9433 59.6235 31.314C62.1755 28.646 64.3215 27.312 66.0615 27.312C67.0282 27.312 67.5115 27.8533 67.5115 28.936C67.3182 31.0627 64.2635 33.924 58.3475 37.52V38.1C58.3475 39.376 59.0049 40.014 60.3195 40.014C61.6729 40.014 63.1229 39.5693 64.6695 38.68C67.6855 36.9013 70.5082 34.8713 73.1375 32.59L74.5875 31.372ZM64.5535 29.11C63.7029 29.11 62.6009 29.8253 61.2475 31.256C59.9329 32.6867 59.0435 34.3107 58.5795 36.128C60.4355 35.0067 62.0015 33.8273 63.2775 32.59C64.5535 31.314 65.1915 30.4247 65.1915 29.922C65.1915 29.3807 64.9789 29.11 64.5535 29.11ZM87.4527 31.372C87.7233 31.1787 87.9747 31.082 88.2067 31.082C88.4387 31.082 88.5547 31.2173 88.5547 31.488V31.604C85.6547 33.924 82.7933 36.1087 79.9707 38.158C77.148 40.1687 75.0793 41.174 73.7647 41.174C72.798 41.174 72.3147 40.652 72.3147 39.608C72.3147 38.564 72.7787 37.52 73.7067 36.476C74.6347 35.432 75.5433 34.5233 76.4327 33.75C77.3607 32.9767 77.8247 32.474 77.8247 32.242C77.8247 31.9713 77.67 31.6813 77.3607 31.372C77.09 31.024 76.858 30.792 76.6647 30.676C76.0073 31.3333 74.5767 32.532 72.3727 34.272L72.1407 33.402C74.5767 31.4687 75.988 30.1733 76.3747 29.516V28.994C76.3747 28.0273 76.4713 27.37 76.6647 27.022C76.858 26.674 77.322 26.1907 78.0567 25.572C78.7913 24.9533 79.294 24.644 79.5647 24.644C79.8353 24.644 80.0673 24.7407 80.2607 24.934C80.4927 25.1273 80.6087 25.3207 80.6087 25.514C80.6087 25.7073 80.5313 25.9393 80.3767 26.21C80.2607 26.442 80.1253 26.6547 79.9707 26.848C79.8547 27.0027 79.6807 27.2153 79.4487 27.486C79.2167 27.718 79.062 27.892 78.9847 28.008C78.946 28.0853 78.888 28.24 78.8107 28.472C78.772 28.704 78.656 28.8973 78.4627 29.052C78.2693 29.2067 78.1727 29.4 78.1727 29.632C78.1727 29.864 78.3273 30.386 78.6367 31.198C78.946 31.9713 79.1007 32.5513 79.1007 32.938C79.1007 33.286 78.3853 34.156 76.9547 35.548C75.524 36.9013 74.8087 38.0033 74.8087 38.854C74.8087 39.318 75.0213 39.55 75.4467 39.55C75.988 39.55 76.9933 39.0667 78.4627 38.1L79.1587 37.636C81.672 35.896 84.0307 34.1367 86.2347 32.358L87.4527 31.372ZM93.6415 23.484C94.0281 23.484 94.3181 23.6 94.5115 23.832C94.7435 24.064 94.8595 24.3927 94.8595 24.818C94.8595 25.2433 94.5695 25.7847 93.9895 26.442C93.4095 27.0993 92.9068 27.428 92.4815 27.428C92.0561 27.428 91.7468 27.312 91.5535 27.08C91.3601 26.8093 91.2635 26.5193 91.2635 26.21C91.2635 25.862 91.5728 25.3207 92.1915 24.586C92.8101 23.8513 93.2935 23.484 93.6415 23.484ZM98.4555 31.314C98.7648 31.1207 98.9968 31.024 99.1515 31.024C99.3448 31.024 99.4415 31.14 99.4415 31.372V31.546C99.5961 31.546 98.5521 32.3967 96.3095 34.098C94.1055 35.7993 91.7275 37.5007 89.1755 39.202C86.6621 40.9033 85.0768 41.754 84.4195 41.754C83.2981 41.754 82.7375 41.29 82.7375 40.362C82.7375 39.2407 83.7041 37.1333 85.6375 34.04C87.5708 30.908 88.9821 29.342 89.8715 29.342C90.5288 29.342 90.8575 29.5933 90.8575 30.096C90.8575 30.5987 89.9681 31.9713 88.1895 34.214C86.4108 36.4567 85.5215 38.0613 85.5215 39.028C85.5215 39.5693 85.7148 39.84 86.1015 39.84C86.5268 39.84 87.5515 39.2987 89.1755 38.216C92.0755 36.2827 94.7435 34.33 97.1795 32.358L98.4555 31.314ZM121.915 31.546C113.756 38.3513 108.71 41.754 106.777 41.754C105.656 41.754 105.095 41.29 105.095 40.362C105.095 39.434 105.501 38.332 106.313 37.056C107.164 35.78 107.995 34.6587 108.807 33.692C109.658 32.6867 110.083 32.0873 110.083 31.894C110.083 31.7007 110.025 31.604 109.909 31.604C106.313 34.0013 104.167 35.4707 103.471 36.012C102.814 36.5533 101.712 37.4427 100.165 38.68C98.6571 39.9173 97.6711 40.6907 97.2071 41C96.7431 41.3093 96.2404 41.464 95.6991 41.464C95.1578 41.464 94.8871 41.232 94.8871 40.768C94.8871 40.2267 95.9698 38.5253 98.1351 35.664C100.223 32.8027 101.267 31.198 101.267 30.85C101.267 30.7727 101.19 30.734 101.035 30.734C100.919 30.734 99.2564 31.9133 96.0471 34.272L95.8151 33.402C98.5604 31.198 100.416 29.7867 101.383 29.168C102.35 28.5493 103.123 28.24 103.703 28.24C104.322 28.24 104.631 28.53 104.631 29.11C104.631 29.4967 103.529 31.082 101.325 33.866C99.1598 36.6113 98.0771 38.1 98.0771 38.332C98.0771 38.5253 98.1351 38.622 98.2511 38.622C98.4058 38.622 100.61 37.0753 104.863 33.982C109.155 30.85 111.765 29.284 112.693 29.284C112.964 29.284 113.215 29.4 113.447 29.632C113.718 29.8253 113.853 30.0187 113.853 30.212C113.853 30.676 112.828 32.2227 110.779 34.852C108.73 37.4427 107.705 38.912 107.705 39.26C107.705 39.608 107.937 39.782 108.401 39.782C108.904 39.782 109.948 39.26 111.533 38.216C114.433 36.3213 117.101 34.3687 119.537 32.358L120.813 31.314C121.084 31.1207 121.335 31.024 121.567 31.024C121.799 31.024 121.915 31.14 121.915 31.372V31.546ZM137.966 31.372C138.237 31.1787 138.488 31.082 138.72 31.082C138.952 31.082 139.068 31.2173 139.068 31.488V31.604C135.317 34.6973 132.379 36.94 130.252 38.332L118.652 45.872L115.056 50.918C109.488 58.5353 106.704 62.634 106.704 63.214C106.085 64.5673 105.486 65.244 104.906 65.244C104.171 65.244 103.804 64.7607 103.804 63.794C103.804 62.8273 104.287 61.532 105.254 59.908C106.182 58.284 107.11 56.9693 108.038 55.964L113.548 50.164C114.012 49.4293 114.959 48.076 116.39 46.104C117.821 44.132 118.768 42.8173 119.232 42.16L121.726 38.448L121.842 38.216C121.842 38.1387 121.803 38.1 121.726 38.1C119.445 39.9947 117.55 40.942 116.042 40.942C114.534 40.942 113.78 40.5167 113.78 39.666C113.78 38.7767 114.36 37.6167 115.52 36.186C116.68 34.7553 118.072 33.3633 119.696 32.01C121.359 30.6567 123.176 29.4967 125.148 28.53C127.159 27.5247 128.918 27.022 130.426 27.022C131.973 27.022 132.746 27.5633 132.746 28.646C132.746 29.4193 132.011 30.3473 130.542 31.43C129.111 32.5127 128.222 33.054 127.874 33.054C127.565 33.054 127.41 32.9767 127.41 32.822C127.41 32.59 127.565 32.3773 127.874 32.184C129.189 31.256 129.846 30.386 129.846 29.574C129.846 28.7233 129.498 28.298 128.802 28.298C127.101 28.298 124.723 29.748 121.668 32.648C118.652 35.5093 117.144 37.5393 117.144 38.738C117.144 39.086 117.415 39.26 117.956 39.26C118.536 39.26 119.503 38.8153 120.856 37.926C122.209 36.998 123.234 36.1087 123.93 35.258L125.496 33.286C125.689 33.0153 125.941 32.88 126.25 32.88C126.559 32.88 126.83 32.9767 127.062 33.17C127.294 33.3633 127.41 33.5567 127.41 33.75L120.392 43.494L128.976 38.1C131.528 36.5533 134.08 34.6973 136.632 32.532L137.966 31.372ZM161.054 31.372C161.364 31.1787 161.615 31.082 161.808 31.082C162.04 31.082 162.156 31.2173 162.156 31.488V31.604C159.179 34.1173 156.028 36.476 152.702 38.68C149.416 40.884 147.328 41.986 146.438 41.986C145.549 41.986 144.795 41.812 144.176 41.464C143.596 41.1547 143.306 40.7873 143.306 40.362C143.306 39.9367 143.422 39.5887 143.654 39.318C143.886 39.0087 144.099 38.854 144.292 38.854C144.486 38.854 144.795 39.1633 145.22 39.782C145.684 40.362 146.129 40.652 146.554 40.652C147.444 40.652 148.14 39.7047 148.642 37.81C149.145 35.9153 149.396 34.62 149.396 33.924C149.396 33.1893 149.338 32.822 149.222 32.822C149.145 32.822 149.068 32.8607 148.99 32.938L147.308 34.272L147.076 33.402C149.512 31.4687 150.924 30.1733 151.31 29.516C151.542 28.8973 151.871 28.588 152.296 28.588C152.567 28.588 152.702 28.6847 152.702 28.878C152.702 29.0713 152.567 29.4967 152.296 30.154C152.026 30.7727 151.658 32.2033 151.194 34.446C150.769 36.6887 150.556 37.984 150.556 38.332C150.556 38.68 150.653 38.854 150.846 38.854C153.553 37.1913 156.414 35.1227 159.43 32.648L161.054 31.372ZM179.917 31.314C180.188 31.1207 180.439 31.024 180.671 31.024C180.903 31.024 181.019 31.14 181.019 31.372V31.546C177.964 34.098 174.968 36.3793 172.029 38.39C169.09 40.6327 167.041 41.754 165.881 41.754C164.76 41.754 164.199 41.29 164.199 40.362C164.199 39.3567 164.934 37.6553 166.403 35.258C167.872 32.8607 168.607 31.5847 168.607 31.43C168.607 31.2367 168.53 31.14 168.375 31.14C167.872 31.14 166.326 32.2613 163.735 34.504C161.183 36.708 158.94 38.7573 157.007 40.652C156.272 41.3093 155.75 41.638 155.441 41.638C155.17 41.638 155.035 41.4253 155.035 41C155.035 40.5747 155.286 40.0333 155.789 39.376L176.031 8.52C176.456 7.86267 177.017 7.534 177.713 7.534C178.448 7.534 178.815 7.766 178.815 8.23C178.815 8.50067 178.699 8.79067 178.467 9.1C178.274 9.40933 176.978 11.2653 174.581 14.668C172.184 18.032 170.792 20.0233 170.405 20.642C170.057 21.2607 168.375 23.8127 165.359 28.298C162.382 32.7833 160.796 35.1613 160.603 35.432C160.448 35.664 160.371 35.8573 160.371 36.012C160.371 36.1667 160.429 36.244 160.545 36.244C160.7 36.244 160.796 36.2247 160.835 36.186C162.072 34.9487 163.754 33.518 165.881 31.894C168.046 30.2313 169.535 29.4 170.347 29.4C170.656 29.4 170.927 29.516 171.159 29.748C171.391 29.9413 171.507 30.2893 171.507 30.792C171.507 31.256 170.753 32.5707 169.245 34.736C167.737 36.8627 166.983 38.2547 166.983 38.912C166.983 39.5307 167.176 39.84 167.563 39.84C167.988 39.84 169.013 39.2987 170.637 38.216C173.537 36.2827 176.205 34.33 178.641 32.358L179.917 31.314ZM184.339 36.012C186.504 36.012 189.095 34.794 192.111 32.358L193.097 32.648C189.308 35.8187 186.04 37.404 183.295 37.404C182.986 37.404 182.754 37.3847 182.599 37.346C181.555 38.622 180.414 39.666 179.177 40.478C177.94 41.2513 176.857 41.638 175.929 41.638C174.46 41.638 173.725 40.826 173.725 39.202C173.725 37.5393 175.098 35.3353 177.843 32.59C177.379 31.4687 177.147 30.2893 177.147 29.052C177.147 27.8147 177.592 26.8093 178.481 26.036C179.37 25.2627 180.395 24.876 181.555 24.876C182.754 24.876 183.759 25.2627 184.571 26.036C185.383 26.8093 185.789 27.9113 185.789 29.342C185.789 31.546 185.074 33.75 183.643 35.954C183.798 35.9927 184.03 36.012 184.339 36.012ZM182.483 35.432C183.682 33.4213 184.281 31.72 184.281 30.328C184.281 28.8973 183.933 27.8533 183.237 27.196C182.541 26.5 181.864 26.152 181.207 26.152C179.854 26.152 179.177 26.848 179.177 28.24C179.177 29.632 179.486 31.024 180.105 32.416C180.724 33.7693 181.516 34.7747 182.483 35.432ZM176.103 38.854C176.103 39.6273 176.606 40.014 177.611 40.014C178.616 40.014 179.892 38.9893 181.439 36.94C180.395 36.3987 179.467 35.4513 178.655 34.098C176.954 35.954 176.103 37.5393 176.103 38.854ZM194.457 40.246C194.457 39.666 194.727 38.912 195.269 37.984C195.849 37.056 196.158 36.5147 196.197 36.36C196.235 36.2053 196.197 36.128 196.081 36.128C195.965 36.128 195.791 36.244 195.559 36.476C195.365 36.6693 194.186 37.4813 192.021 38.912C189.894 40.304 188.425 41 187.613 41C187.071 41 186.801 40.652 186.801 39.956C186.801 39.26 187.883 37.462 190.049 34.562C192.214 31.662 193.741 30.212 194.631 30.212C194.824 30.212 194.998 30.3087 195.153 30.502C195.346 30.6567 195.443 30.792 195.443 30.908C195.443 30.9853 194.437 32.1647 192.427 34.446C190.455 36.7273 189.469 38.1967 189.469 38.854C189.469 39.0087 189.546 39.086 189.701 39.086C190.435 39.086 192.021 38.1 194.457 36.128C196.893 34.156 198.613 32.6287 199.619 31.546C200.663 30.4633 201.475 29.922 202.055 29.922C202.635 29.922 202.925 30.1733 202.925 30.676C202.925 30.9853 202.809 31.2947 202.577 31.604C202.345 31.9133 201.9 32.474 201.243 33.286C200.624 34.0593 200.044 34.794 199.503 35.49C197.995 37.4233 197.241 38.6413 197.241 39.144C197.241 39.608 197.434 39.84 197.821 39.84C198.246 39.84 199.251 39.2987 200.837 38.216C203.775 36.2827 206.463 34.33 208.899 32.358L210.175 31.314C210.445 31.1207 210.677 31.024 210.871 31.024C211.064 31.024 211.161 31.14 211.161 31.372V31.546C211.315 31.546 210.271 32.3967 208.029 34.098C205.825 35.7993 203.447 37.5007 200.895 39.202C198.381 40.9033 196.796 41.754 196.139 41.754C195.017 41.754 194.457 41.2513 194.457 40.246ZM224.04 31.372C224.311 31.1787 224.562 31.082 224.794 31.082C225.026 31.082 225.142 31.2173 225.142 31.488V31.604C221.121 34.9293 218.066 37.2493 215.978 38.564C213.272 40.6133 210.99 41.638 209.134 41.638C207.51 41.638 206.698 40.6713 206.698 38.738C206.698 36.1473 208.361 32.3193 211.686 27.254C215.05 22.15 218.82 17.568 222.996 13.508C227.172 9.448 230.324 7.418 232.45 7.418C233.417 7.418 233.9 7.84333 233.9 8.694C233.9 10.8207 231.348 14.3393 226.244 19.25C221.179 24.122 216.191 28.2787 211.28 31.72C209.85 34.4653 209.134 36.5533 209.134 37.984C209.134 39.4147 209.637 40.13 210.642 40.13C211.648 40.13 212.962 39.55 214.586 38.39C217.332 36.766 220 34.8327 222.59 32.59L224.04 31.372ZM231 9.274C229.376 9.274 226.496 11.6133 222.358 16.292C218.221 20.9707 214.799 25.6493 212.092 30.328C216.539 27.1573 220.889 23.2907 225.142 18.728C229.396 14.1267 231.522 11.1493 231.522 9.796C231.522 9.448 231.348 9.274 231 9.274ZM228.285 32.706L230.141 29.864C230.025 29.8253 229.909 29.806 229.793 29.806C228.169 29.806 226.043 31.0433 223.413 33.518C220.784 35.9927 219.469 37.7327 219.469 38.738C219.469 39.0087 219.624 39.144 219.933 39.144C220.9 39.144 222.369 38.332 224.341 36.708C226.313 35.0453 227.628 33.7113 228.285 32.706ZM241.219 31.604C233.177 38.1 228.305 41.348 226.603 41.348C225.946 41.348 225.617 40.9613 225.617 40.188C225.617 39.4147 225.907 38.1193 226.487 36.302C226.487 36.2633 226.449 36.244 226.371 36.244C221.925 39.9173 218.967 41.754 217.497 41.754C216.492 41.754 215.989 41.3867 215.989 40.652C215.989 39.028 217.729 36.65 221.209 33.518C224.728 30.386 227.531 28.82 229.619 28.82C229.89 28.82 230.18 29.0133 230.489 29.4C231.379 28.0853 236.367 20.9513 245.453 7.998C246.42 6.79933 247.193 6.2 247.773 6.2C248.392 6.2 248.701 6.39333 248.701 6.78C248.701 7.74667 245.376 12.3093 238.725 20.468C236.251 23.5613 233.969 26.79 231.881 30.154C229.832 33.4793 228.807 36.012 228.807 37.752C228.807 38.4867 229.02 38.854 229.445 38.854C229.948 38.854 230.837 38.4093 232.113 37.52C234.743 35.6253 237.043 33.8853 239.015 32.3L240.117 31.372C240.388 31.1787 240.639 31.082 240.871 31.082C241.103 31.082 241.219 31.2173 241.219 31.488V31.604ZM264.974 31.604H266.308C262.712 34.852 259.155 36.708 255.636 37.172C254.785 38.4093 253.78 39.4727 252.62 40.362C251.499 41.2513 250.551 41.696 249.778 41.696C248.85 41.696 248.386 41.1547 248.386 40.072C248.386 38.9893 248.869 37.4427 249.836 35.432C248.135 33.924 247.284 32.242 247.284 30.386C247.284 29.3807 247.632 28.5687 248.328 27.95C249.024 27.3313 250.01 27.022 251.286 27.022C252.562 27.022 253.587 27.2153 254.36 27.602C258.149 21.7247 262.499 15.5187 267.41 8.984L269.904 5.678C270.291 5.25267 270.677 5.04 271.064 5.04C271.644 5.04 271.973 5.33 272.05 5.91V6.316C272.05 6.39333 271.953 6.56733 271.76 6.838C264.143 16.8527 258.826 24.0833 255.81 28.53C256.815 29.5353 257.318 30.7147 257.318 32.068C257.318 33.4213 256.989 34.7553 256.332 36.07C258.961 35.7607 261.842 34.272 264.974 31.604ZM249.024 30.502C249.024 31.662 249.546 32.8027 250.59 33.924C251.325 32.5707 252.388 30.792 253.78 28.588C253.239 28.2787 252.639 28.124 251.982 28.124C250.01 28.124 249.024 28.9167 249.024 30.502ZM251.924 35.026C252.852 35.606 253.799 35.954 254.766 36.07C255.462 34.8327 255.81 33.692 255.81 32.648C255.81 31.604 255.539 30.6567 254.998 29.806C253.683 31.7393 252.659 33.4793 251.924 35.026ZM251.692 39.144C252.349 39.144 253.142 38.506 254.07 37.23C253.142 37.23 252.214 36.9787 251.286 36.476C251.093 37.1333 250.996 37.6167 250.996 37.926C250.996 38.738 251.228 39.144 251.692 39.144ZM280.136 31.372C280.407 31.1787 280.658 31.082 280.89 31.082C281.122 31.082 281.238 31.2173 281.238 31.488V31.604C277.217 34.9293 273.872 37.4233 271.204 39.086C268.536 40.7487 266.12 41.58 263.954 41.58C262.214 41.58 261.344 40.7293 261.344 39.028C261.344 36.5147 262.62 33.9433 265.172 31.314C267.724 28.646 269.87 27.312 271.61 27.312C272.577 27.312 273.06 27.8533 273.06 28.936C272.867 31.0627 269.812 33.924 263.896 37.52V38.1C263.896 39.376 264.554 40.014 265.868 40.014C267.222 40.014 268.672 39.5693 270.218 38.68C273.234 36.9013 276.057 34.8713 278.686 32.59L280.136 31.372ZM270.102 29.11C269.252 29.11 268.15 29.8253 266.796 31.256C265.482 32.6867 264.592 34.3107 264.128 36.128C265.984 35.0067 267.55 33.8273 268.826 32.59C270.102 31.314 270.74 30.4247 270.74 29.922C270.74 29.3807 270.528 29.11 270.102 29.11ZM297.769 34.04C297.537 34.04 297.421 33.9627 297.421 33.808C297.421 33.6147 297.556 33.402 297.827 33.17C299.103 32.126 299.741 31.1787 299.741 30.328C299.741 29.7867 299.257 29.4773 298.291 29.4C296.551 29.4387 294.463 30.6953 292.027 33.17C289.629 35.6447 288.431 37.5007 288.431 38.738C288.431 39.1633 288.663 39.376 289.127 39.376C289.629 39.376 290.287 39.0473 291.099 38.39C291.833 37.926 293.206 36.766 295.217 34.91C295.681 34.446 296.125 34.214 296.551 34.214C297.092 34.214 297.363 34.4653 297.363 34.968C297.363 35.1613 297.305 35.316 297.189 35.432C297.073 35.548 296.86 35.7993 296.551 36.186C296.241 36.534 295.971 36.8627 295.739 37.172C295.043 38.1773 294.695 38.8347 294.695 39.144C294.695 39.9173 295.004 40.304 295.623 40.304C296.435 40.304 297.962 39.5693 300.205 38.1C302.447 36.592 304.497 35.084 306.353 33.576L309.137 31.372C309.407 31.1787 309.659 31.082 309.891 31.082C310.123 31.082 310.239 31.2173 310.239 31.488V31.604C307.261 34.1173 304.11 36.476 300.785 38.68C297.498 40.884 295.333 41.986 294.289 41.986C293.051 41.986 292.433 41.3287 292.433 40.014C292.433 39.7047 292.491 39.4147 292.607 39.144C292.723 38.8733 292.781 38.68 292.781 38.564C292.781 38.448 292.742 38.3707 292.665 38.332C292.549 38.332 291.795 38.854 290.403 39.898C289.049 40.942 287.851 41.464 286.807 41.464C285.801 41.464 285.299 40.9227 285.299 39.84C285.299 38.7573 286.014 37.3073 287.445 35.49C288.914 33.634 290.867 31.952 293.303 30.444C295.739 28.936 298.117 28.182 300.437 28.182C300.978 28.182 301.423 28.3173 301.771 28.588C302.157 28.8587 302.351 29.284 302.351 29.864C302.351 30.4053 301.79 31.2367 300.669 32.358C299.547 33.4793 298.581 34.04 297.769 34.04ZM332.675 31.546C324.516 38.3513 319.47 41.754 317.537 41.754C316.416 41.754 315.855 41.29 315.855 40.362C315.855 39.434 316.261 38.332 317.073 37.056C317.924 35.78 318.755 34.6587 319.567 33.692C320.418 32.6867 320.843 32.0873 320.843 31.894C320.843 31.7007 320.785 31.604 320.669 31.604C317.073 34.0013 314.927 35.4707 314.231 36.012C313.574 36.5533 312.472 37.4427 310.925 38.68C309.417 39.9173 308.431 40.6907 307.967 41C307.503 41.3093 307 41.464 306.459 41.464C305.918 41.464 305.647 41.232 305.647 40.768C305.647 40.2267 306.73 38.5253 308.895 35.664C310.983 32.8027 312.027 31.198 312.027 30.85C312.027 30.7727 311.95 30.734 311.795 30.734C311.679 30.734 310.016 31.9133 306.807 34.272L306.575 33.402C309.32 31.198 311.176 29.7867 312.143 29.168C313.11 28.5493 313.883 28.24 314.463 28.24C315.082 28.24 315.391 28.53 315.391 29.11C315.391 29.4967 314.289 31.082 312.085 33.866C309.92 36.6113 308.837 38.1 308.837 38.332C308.837 38.5253 308.895 38.622 309.011 38.622C309.166 38.622 311.37 37.0753 315.623 33.982C319.915 30.85 322.525 29.284 323.453 29.284C323.724 29.284 323.975 29.4 324.207 29.632C324.478 29.8253 324.613 30.0187 324.613 30.212C324.613 30.676 323.588 32.2227 321.539 34.852C319.49 37.4427 318.465 38.912 318.465 39.26C318.465 39.608 318.697 39.782 319.161 39.782C319.664 39.782 320.708 39.26 322.293 38.216C325.193 36.3213 327.861 34.3687 330.297 32.358L331.573 31.314C331.844 31.1207 332.095 31.024 332.327 31.024C332.559 31.024 332.675 31.14 332.675 31.372V31.546ZM358.017 31.372C358.288 31.1787 358.539 31.082 358.771 31.082C359.003 31.082 359.119 31.2173 359.119 31.488V31.604C355.098 34.9293 351.753 37.4233 349.085 39.086C346.417 40.7487 344.001 41.58 341.835 41.58C340.095 41.58 339.225 40.7293 339.225 39.028C339.225 36.5147 340.501 33.9433 343.053 31.314C345.605 28.646 347.751 27.312 349.491 27.312C350.458 27.312 350.941 27.8533 350.941 28.936C350.748 31.0627 347.693 33.924 341.777 37.52V38.1C341.777 39.376 342.435 40.014 343.749 40.014C345.103 40.014 346.553 39.5693 348.099 38.68C351.115 36.9013 353.938 34.8713 356.567 32.59L358.017 31.372ZM347.983 29.11C347.133 29.11 346.031 29.8253 344.677 31.256C343.363 32.6867 342.473 34.3107 342.009 36.128C343.865 35.0067 345.431 33.8273 346.707 32.59C347.983 31.314 348.621 30.4247 348.621 29.922C348.621 29.3807 348.409 29.11 347.983 29.11ZM351.916 41.058C351.646 41.058 351.51 40.9227 351.51 40.652C351.51 40.4973 351.704 40.2267 352.09 39.84C353.134 38.68 354.932 37.114 357.484 35.142C357.987 32.8607 358.238 31.5847 358.238 31.314C358.238 31.0433 358.103 30.8113 357.832 30.618C357.6 30.4247 357.484 30.2893 357.484 30.212C357.484 30.096 357.6 29.922 357.832 29.69C358.876 28.9553 359.611 28.588 360.036 28.588C360.616 28.588 360.906 28.8973 360.906 29.516C360.906 29.8253 360.597 31.0627 359.978 33.228C364.773 29.748 367.557 28.008 368.33 28.008C368.562 28.008 368.775 28.124 368.968 28.356C369.162 28.5493 369.258 28.7233 369.258 28.878C369.258 28.9553 368.33 29.516 366.474 30.56C364.618 31.604 362.318 33.0927 359.572 35.026C359.302 36.2633 359.166 37.23 359.166 37.926C359.166 39.202 359.495 39.84 360.152 39.84C360.655 39.84 362.298 38.9893 365.082 37.288C367.325 35.7413 369.548 34.0787 371.752 32.3L372.854 31.372C373.125 31.1787 373.357 31.082 373.55 31.082C373.782 31.082 373.898 31.2367 373.898 31.546V31.604C366.01 38.1 361.158 41.348 359.34 41.348C357.794 41.348 357.02 40.4007 357.02 38.506C357.02 38.158 357.059 37.5973 357.136 36.824C355.512 38.0227 354.082 39.2407 352.844 40.478C352.38 40.8647 352.071 41.058 351.916 41.058ZM393.439 31.546C385.28 38.3513 380.234 41.754 378.301 41.754C377.18 41.754 376.619 41.3093 376.619 40.42C376.619 39.492 377.682 37.7907 379.809 35.316C381.936 32.8027 382.999 31.198 382.999 30.502C382.922 30.4247 382.844 30.386 382.767 30.386C381.684 30.386 379.944 31.2173 377.547 32.88C362.003 54.6493 353.168 65.534 351.041 65.534C350.616 65.534 350.268 65.3793 349.997 65.07C349.688 64.7993 349.533 64.374 349.533 63.794C349.533 61.126 352.162 56.66 357.421 50.396C362.68 44.132 368.074 38.854 373.603 34.562L378.707 27.138V27.08C378.707 26.964 378.63 26.906 378.475 26.906C377.702 28.2593 375.614 30.2893 372.211 32.996L370.529 34.272L370.297 33.402C373.236 31.0047 375.962 28.53 378.475 25.978C380.988 23.426 382.767 21.4733 383.811 20.12L385.377 18.09C385.918 17.3553 386.518 16.988 387.175 16.988C387.832 16.988 388.161 17.1813 388.161 17.568C388.161 17.7227 388.103 17.858 387.987 17.974C387.91 18.09 387.465 18.728 386.653 19.888C385.88 21.0093 384.72 22.672 383.173 24.876C381.626 27.0413 380.176 29.0907 378.823 31.024C381.066 29.748 382.748 29.11 383.869 29.11C385.029 29.11 385.609 29.342 385.609 29.806C385.609 31.3527 384.062 33.7307 380.969 36.94C379.925 38.0227 379.403 38.738 379.403 39.086C379.403 39.3953 379.674 39.55 380.215 39.55C380.795 39.55 381.8 39.0667 383.231 38.1C386.054 36.2053 388.664 34.2913 391.061 32.358L392.337 31.314C392.608 31.1207 392.859 31.024 393.091 31.024C393.323 31.024 393.439 31.14 393.439 31.372V31.546ZM351.795 63.62C352.994 63.62 359.625 54.8813 371.689 37.404C366.585 41.7347 361.945 46.452 357.769 51.556C353.554 56.6987 351.447 60.604 351.447 63.272C351.447 63.504 351.563 63.62 351.795 63.62ZM407.181 31.372C407.452 31.1787 407.703 31.082 407.935 31.082C408.167 31.082 408.283 31.2173 408.283 31.488V31.604C404.262 34.9293 400.917 37.4233 398.249 39.086C395.581 40.7487 393.165 41.58 390.999 41.58C389.259 41.58 388.389 40.7293 388.389 39.028C388.389 36.5147 389.665 33.9433 392.217 31.314C394.769 28.646 396.915 27.312 398.655 27.312C399.622 27.312 400.105 27.8533 400.105 28.936C399.912 31.0627 396.857 33.924 390.941 37.52V38.1C390.941 39.376 391.599 40.014 392.913 40.014C394.267 40.014 395.717 39.5693 397.263 38.68C400.279 36.9013 403.102 34.8713 405.731 32.59L407.181 31.372ZM397.147 29.11C396.297 29.11 395.195 29.8253 393.841 31.256C392.527 32.6867 391.637 34.3107 391.173 36.128C393.029 35.0067 394.595 33.8273 395.871 32.59C397.147 31.314 397.785 30.4247 397.785 29.922C397.785 29.3807 397.573 29.11 397.147 29.11ZM420.046 31.372C420.317 31.1787 420.568 31.082 420.8 31.082C421.032 31.082 421.148 31.2173 421.148 31.488V31.604C418.248 33.924 415.387 36.1087 412.564 38.158C409.742 40.1687 407.673 41.174 406.358 41.174C405.392 41.174 404.908 40.652 404.908 39.608C404.908 38.564 405.372 37.52 406.3 36.476C407.228 35.432 408.137 34.5233 409.026 33.75C409.954 32.9767 410.418 32.474 410.418 32.242C410.418 31.9713 410.264 31.6813 409.954 31.372C409.684 31.024 409.452 30.792 409.258 30.676C408.601 31.3333 407.17 32.532 404.966 34.272L404.734 33.402C407.17 31.4687 408.582 30.1733 408.968 29.516V28.994C408.968 28.0273 409.065 27.37 409.258 27.022C409.452 26.674 409.916 26.1907 410.65 25.572C411.385 24.9533 411.888 24.644 412.158 24.644C412.429 24.644 412.661 24.7407 412.854 24.934C413.086 25.1273 413.202 25.3207 413.202 25.514C413.202 25.7073 413.125 25.9393 412.97 26.21C412.854 26.442 412.719 26.6547 412.564 26.848C412.448 27.0027 412.274 27.2153 412.042 27.486C411.81 27.718 411.656 27.892 411.578 28.008C411.54 28.0853 411.482 28.24 411.404 28.472C411.366 28.704 411.25 28.8973 411.056 29.052C410.863 29.2067 410.766 29.4 410.766 29.632C410.766 29.864 410.921 30.386 411.23 31.198C411.54 31.9713 411.694 32.5513 411.694 32.938C411.694 33.286 410.979 34.156 409.548 35.548C408.118 36.9013 407.402 38.0033 407.402 38.854C407.402 39.318 407.615 39.55 408.04 39.55C408.582 39.55 409.587 39.0667 411.056 38.1L411.752 37.636C414.266 35.896 416.624 34.1367 418.828 32.358L420.046 31.372ZM426.235 23.484C426.622 23.484 426.912 23.6 427.105 23.832C427.337 24.064 427.453 24.3927 427.453 24.818C427.453 25.2433 427.163 25.7847 426.583 26.442C426.003 27.0993 425.501 27.428 425.075 27.428C424.65 27.428 424.341 27.312 424.147 27.08C423.954 26.8093 423.857 26.5193 423.857 26.21C423.857 25.862 424.167 25.3207 424.785 24.586C425.404 23.8513 425.887 23.484 426.235 23.484ZM431.049 31.314C431.359 31.1207 431.591 31.024 431.745 31.024C431.939 31.024 432.035 31.14 432.035 31.372V31.546C432.19 31.546 431.146 32.3967 428.903 34.098C426.699 35.7993 424.321 37.5007 421.769 39.202C419.256 40.9033 417.671 41.754 417.013 41.754C415.892 41.754 415.331 41.29 415.331 40.362C415.331 39.2407 416.298 37.1333 418.231 34.04C420.165 30.908 421.576 29.342 422.465 29.342C423.123 29.342 423.451 29.5933 423.451 30.096C423.451 30.5987 422.562 31.9713 420.783 34.214C419.005 36.4567 418.115 38.0613 418.115 39.028C418.115 39.5693 418.309 39.84 418.695 39.84C419.121 39.84 420.145 39.2987 421.769 38.216C424.669 36.2827 427.337 34.33 429.773 32.358L431.049 31.314ZM445.867 31.372C446.138 31.1787 446.389 31.082 446.621 31.082C446.853 31.082 446.969 31.2173 446.969 31.488V31.604C442.948 34.9293 439.603 37.4233 436.935 39.086C434.267 40.7487 431.85 41.58 429.685 41.58C427.945 41.58 427.075 40.7293 427.075 39.028C427.075 36.5147 428.351 33.9433 430.903 31.314C433.455 28.646 435.601 27.312 437.341 27.312C438.308 27.312 438.791 27.8533 438.791 28.936C438.598 31.0627 435.543 33.924 429.627 37.52V38.1C429.627 39.376 430.284 40.014 431.599 40.014C432.952 40.014 434.402 39.5693 435.949 38.68C438.965 36.9013 441.788 34.8713 444.417 32.59L445.867 31.372ZM435.833 29.11C434.982 29.11 433.88 29.8253 432.527 31.256C431.212 32.6867 430.323 34.3107 429.859 36.128C431.715 35.0067 433.281 33.8273 434.557 32.59C435.833 31.314 436.471 30.4247 436.471 29.922C436.471 29.3807 436.258 29.11 435.833 29.11ZM469.462 31.546C461.303 38.3513 456.257 41.754 454.324 41.754C453.203 41.754 452.642 41.29 452.642 40.362C452.642 39.434 453.048 38.332 453.86 37.056C454.711 35.78 455.542 34.6587 456.354 33.692C457.205 32.6867 457.63 32.0873 457.63 31.894C457.63 31.7007 457.572 31.604 457.456 31.604C453.86 34.0013 451.714 35.4707 451.018 36.012C450.361 36.5533 449.259 37.4427 447.712 38.68C446.204 39.9173 445.218 40.6907 444.754 41C444.29 41.3093 443.787 41.464 443.246 41.464C442.705 41.464 442.434 41.232 442.434 40.768C442.434 40.2267 443.517 38.5253 445.682 35.664C447.77 32.8027 448.814 31.198 448.814 30.85C448.814 30.7727 448.737 30.734 448.582 30.734C448.466 30.734 446.803 31.9133 443.594 34.272L443.362 33.402C446.107 31.198 447.963 29.7867 448.93 29.168C449.897 28.5493 450.67 28.24 451.25 28.24C451.869 28.24 452.178 28.53 452.178 29.11C452.178 29.4967 451.076 31.082 448.872 33.866C446.707 36.6113 445.624 38.1 445.624 38.332C445.624 38.5253 445.682 38.622 445.798 38.622C445.953 38.622 448.157 37.0753 452.41 33.982C456.702 30.85 459.312 29.284 460.24 29.284C460.511 29.284 460.762 29.4 460.994 29.632C461.265 29.8253 461.4 30.0187 461.4 30.212C461.4 30.676 460.375 32.2227 458.326 34.852C456.277 37.4427 455.252 38.912 455.252 39.26C455.252 39.608 455.484 39.782 455.948 39.782C456.451 39.782 457.495 39.26 459.08 38.216C461.98 36.3213 464.648 34.3687 467.084 32.358L468.36 31.314C468.631 31.1207 468.882 31.024 469.114 31.024C469.346 31.024 469.462 31.14 469.462 31.372V31.546ZM482.323 31.372C482.632 31.1787 482.884 31.082 483.077 31.082C483.309 31.082 483.425 31.2173 483.425 31.488V31.604C480.37 34.3107 477.219 36.6887 473.971 38.738C470.723 40.7873 468.016 41.812 465.851 41.812C464.15 41.812 463.299 40.8067 463.299 38.796C463.299 36.7467 464.517 34.5233 466.953 32.126C469.428 29.7287 472.096 28.53 474.957 28.53C475.808 28.6073 476.33 28.7427 476.523 28.936C476.755 29.1293 476.871 29.4 476.871 29.748C476.871 30.096 476.504 30.734 475.769 31.662C475.073 32.5513 474.435 32.996 473.855 32.996C473.198 32.88 472.869 32.648 472.869 32.3C472.869 32.1453 473.043 31.894 473.391 31.546C474.048 30.966 474.377 30.5407 474.377 30.27C474.377 29.9993 474.164 29.864 473.739 29.864C472.386 29.9027 470.684 31.024 468.635 33.228C466.586 35.3933 465.561 37.1913 465.561 38.622C465.561 39.7047 466.257 40.246 467.649 40.246C469.08 40.246 470.607 39.7433 472.231 38.738C475.092 36.998 477.973 34.9293 480.873 32.532L482.323 31.372ZM497.353 31.372C497.624 31.1787 497.875 31.082 498.107 31.082C498.339 31.082 498.455 31.2173 498.455 31.488V31.604C494.434 34.9293 491.089 37.4233 488.421 39.086C485.753 40.7487 483.337 41.58 481.171 41.58C479.431 41.58 478.561 40.7293 478.561 39.028C478.561 36.5147 479.837 33.9433 482.389 31.314C484.941 28.646 487.087 27.312 488.827 27.312C489.794 27.312 490.277 27.8533 490.277 28.936C490.084 31.0627 487.029 33.924 481.113 37.52V38.1C481.113 39.376 481.771 40.014 483.085 40.014C484.439 40.014 485.889 39.5693 487.435 38.68C490.451 36.9013 493.274 34.8713 495.903 32.59L497.353 31.372ZM487.319 29.11C486.469 29.11 485.367 29.8253 484.013 31.256C482.699 32.6867 481.809 34.3107 481.345 36.128C483.201 35.0067 484.767 33.8273 486.043 32.59C487.319 31.314 487.957 30.4247 487.957 29.922C487.957 29.3807 487.745 29.11 487.319 29.11Z" fill="white"/>
</svg>
